<svg id="_x33_0" enable-background="new 0 0 64 64" height="512" viewBox="0 0 64 64" width="512" xmlns="http://www.w3.org/2000/svg"><g><g><g><path d="m15 55 2 7h-6l2-7z" fill="#fcd770"/></g><g><path d="m16.39 52.91-1.39 2.09h-2l-1.39-2.09 2.39-1.91z" fill="#ffc729"/></g><g><path d="m13 55-2 7h-9v-3.75c0-3.86 2.09-7.32 5.31-9.16l1.69 5.91 2.61-2.09z" fill="#4fc1e9"/></g><g><path d="m16.39 52.91 2.61 2.09 1.69-5.91c1.2.68 2.24 1.59 3.07 2.66 1.42 1.81 2.24 4.07 2.24 6.5v3.75h-9l-2-7z" fill="#4fc1e9"/></g><g><path d="m14 51 4-3c.96.24 1.86.61 2.69 1.09l-1.69 5.91-2.61-2.09z" fill="#3bafda"/></g><g><path d="m10 48 4 3-2.39 1.91-2.61 2.09-1.69-5.91c.83-.48 1.73-.85 2.69-1.09z" fill="#3bafda"/></g><g><path d="m62 58.25v3.75h-24v-3.75c0-3.56 1.78-6.78 4.58-8.69 1.02-.72 2.17-1.25 3.42-1.56v2.53c0 .5.05.99.15 1.47.45 2.14 1.85 3.99 3.85 5 1.22-.62 2.22-1.55 2.92-2.67.44-.71.76-1.5.93-2.33.1-.48.15-.97.15-1.47v-2.53c1.25.31 2.4.84 3.42 1.56.89.6 1.68 1.34 2.34 2.19 1.42 1.81 2.24 4.07 2.24 6.5z" fill="#b4dd7f"/></g><g><path d="m46.15 52h7.7c-.17.83-.49 1.62-.93 2.33-.7 1.12-1.7 2.05-2.92 2.67-2-1.01-3.4-2.86-3.85-5z" fill="#e6e9ed"/></g><g><path d="m23.79 34.85-.54 2.16-.01.01c-.54-.63-1.34-1.02-2.24-1.02h-1v-4h-10c-1.23.61-2 1.87-2 3.24v.76h-1c-.9 0-1.7.39-2.24 1.02l-.01-.01-.54-2.16c-.14-.56-.21-1.14-.21-1.73 0-1.96.8-3.74 2.09-5.03s3.07-2.09 5.03-2.09h5.76c3.93 0 7.12 3.19 7.12 7.12 0 .59-.07 1.17-.21 1.73z" fill="#b27946"/></g><g><path d="m45.76 44.24 1.56 1.13-1.32 2.63c-1.25.31-2.4.84-3.42 1.56l-.01-.01c-1.65-1.87-2.57-4.28-2.57-6.79v-6.76c0-5.52 4.48-10 10-10 2.76 0 5.26 1.12 7.07 2.93s2.93 4.31 2.93 7.07v6.76c0 2.51-.92 4.92-2.57 6.79l-.01.01c-1.02-.72-2.17-1.25-3.42-1.56l-1.32-2.63c1.97-.99 3.32-3.02 3.32-5.37v-4l-.1-.02c-3.22-.64-6.27-2.01-8.9-3.98-1.79.6-3 2.27-3 4.16v3.84c0 1.66.67 3.16 1.76 4.24z" fill="#656d78"/></g><g><path d="m18.88 12.51c.71.98 1.12 2.19 1.12 3.49 0 3.31-2.69 6-6 6s-6-2.69-6-6 2.69-6 6-6c2.01 0 3.79.99 4.88 2.51z" fill="#ff826e"/></g><g><path d="m52.88 4.51c.71.98 1.12 2.19 1.12 3.49 0 3.31-2.69 6-6 6s-6-2.69-6-6 2.69-6 6-6c2.01 0 3.79.99 4.88 2.51z" fill="#ff826e"/></g><g><path d="m21 36c.9 0 1.7.39 2.24 1.02.47.53.76 1.22.76 1.98 0 .83-.34 1.58-.88 2.12s-1.29.88-2.12.88h-1v-6z" fill="#f0d0b4"/></g><g><path d="m8 36v6h-1c-.83 0-1.58-.34-2.12-.88s-.88-1.29-.88-2.12c0-.76.29-1.45.76-1.98.54-.63 1.34-1.02 2.24-1.02z" fill="#f0d0b4"/></g><g><path d="m18 48-4 3-4-3 .73-2.2v-.01c.4.14.82.21 1.27.21h4c.45 0 .87-.07 1.27-.21v.01z" fill="#f0d0b4"/></g><g><path d="m20 36v6c0 1.76-1.14 3.26-2.73 3.79-.4.14-.82.21-1.27.21h-4c-.45 0-.87-.07-1.27-.21-1.59-.53-2.73-2.03-2.73-3.79v-6-.76c0-1.37.77-2.63 2-3.24h10z" fill="#f0d0b4"/></g><g><path d="m54 48v2.53c0 .5-.05.99-.15 1.47h-7.7c-.1-.48-.15-.97-.15-1.47v-2.53l1.32-2.63c.8.4 1.71.63 2.68.63s1.88-.23 2.68-.63z" fill="#f0d0b4"/></g><g><path d="m45.76 44.24c-1.09-1.08-1.76-2.58-1.76-4.24v-3.84c0-1.89 1.21-3.56 3-4.16 2.63 1.97 5.68 3.34 8.9 3.98l.1.02v4c0 2.35-1.35 4.38-3.32 5.37-.8.4-1.71.63-2.68.63s-1.88-.23-2.68-.63z" fill="#f0d0b4"/></g></g><g><path d="m17.789 40.658.105-.211-1.789-.895-.105.212c-.381.762-1.147 1.236-2 1.236h-3v2h3c1.615 0 3.067-.897 3.789-2.342z"/><path d="m11.5 30.938h2v4.123h-2z" transform="matrix(.97 -.243 .243 .97 -7.631 4.017)"/><path d="m15.5 30.938h2v4.123h-2z" transform="matrix(.97 -.243 .243 .97 -7.511 4.987)"/><path d="m58.848 49.369c1.393-1.915 2.152-4.224 2.152-6.611v-6.758c0-6.065-4.935-11-11-11s-11 4.935-11 11v6.758c0 2.387.759 4.697 2.152 6.611-2.568 2.143-4.152 5.355-4.152 8.877v2.754h-10v-2.754c0-5.128-3.353-9.602-8.22-11.068l-.289-.868c1.215-.706 2.119-1.89 2.408-3.309h.101c2.206 0 4-1.794 4-4 0-.815-.248-1.572-.668-2.205l.425-1.701c.161-.644.243-1.307.243-1.972 0-4.479-3.644-8.123-8.123-8.123h-5.754c-4.479 0-8.123 3.644-8.123 8.123 0 .665.082 1.328.243 1.97l.425 1.702c-.42.633-.668 1.39-.668 2.205 0 2.206 1.794 4 4 4h.101c.289 1.419 1.193 2.604 2.408 3.31l-.289.868c-4.867 1.467-8.22 5.94-8.22 11.068v4.754h62v-4.754c0-3.522-1.584-6.734-4.152-8.877zm-17.848-6.611v-6.758c0-4.963 4.038-9 9-9s9 4.037 9 9v6.758c0 1.977-.632 3.889-1.792 5.469-.781-.449-1.621-.814-2.513-1.075l-.704-1.409c1.816-1.265 3.009-3.366 3.009-5.743v-4.819l-.901-.181c-3.062-.612-6-1.927-8.499-3.8l-.419-.314-.497.166c-2.204.734-3.684 2.788-3.684 5.11v3.838c0 2.377 1.193 4.478 3.01 5.744l-.704 1.409c-.892.261-1.733.626-2.513 1.075-1.161-1.581-1.793-3.494-1.793-5.47zm9 2.242c-2.757 0-5-2.243-5-5v-3.838c0-1.294.731-2.455 1.862-3.024 2.437 1.732 5.227 2.99 8.138 3.67v3.192c0 2.757-2.243 5-5 5zm0 2c.77 0 1.509-.13 2.202-.36l.798 1.596v2.292c0 .159-.019.315-.03.472h-5.94c-.011-.157-.03-.312-.03-.472v-2.292l.798-1.596c.693.23 1.432.36 2.202.36zm2.488 6c-.505 1.174-1.36 2.178-2.488 2.859-1.128-.682-1.983-1.686-2.488-2.859zm-27.488 5.246v2.754h-7.246l-1.666-5.83.53-.795 2.931 2.344 1.728-6.047c2.294 1.767 3.723 4.53 3.723 7.574zm-11-5.965 1.051.84-.586.879h-.93l-.586-.879zm-.246 3.719h.492l1.429 5h-3.349zm5.75-6.403-1.053 3.683-2.818-2.255 2.567-1.925c.451.136.886.302 1.304.497zm1.496-8.597v-4c1.103 0 2 .897 2 2s-.897 2-2 2zm-16-2c0-1.103.897-2 2-2v4c-1.103 0-2-.897-2-2zm4.553-7.895c-1.503.753-2.453 2.232-2.537 3.895h-.016c-.582 0-1.131.131-1.63.355l-.187-.748c-.121-.483-.183-.983-.183-1.484 0-3.376 2.747-6.123 6.123-6.123h5.754c3.376 0 6.123 2.747 6.123 6.123 0 .501-.062 1.001-.183 1.485l-.187.747c-.499-.224-1.048-.355-1.63-.355v-2h-2v9c0 1.654-1.346 3-3 3h-4c-1.654 0-3-1.346-3-3v-6.764c0-.998.555-1.896 1.447-2.342zm2.447 15.895h4c.203 0 .396-.036.593-.06l.231.693-2.824 2.117-2.823-2.117.231-.692c.196.023.389.059.592.059zm-2.199 2.1 2.567 1.925-2.819 2.255-1.053-3.683c.418-.195.853-.361 1.305-.497zm-6.801 9.146c0-3.044 1.429-5.807 3.724-7.574l1.728 6.047 2.931-2.344.53.795-1.667 5.83h-7.246zm58 2.754h-22v-2.754c0-3.953 2.413-7.429 6-8.866v1.148c0 3.14 1.745 5.962 4.553 7.366l.447.224.447-.224c2.808-1.404 4.553-4.226 4.553-7.366v-1.148c3.587 1.437 6 4.913 6 8.866z"/><path d="m52 39.764c-.381.762-1.147 1.236-2 1.236h-3v2h3c1.615 0 3.067-.897 3.789-2.342l.105-.211-1.789-.895z"/><path d="m14 23c3.86 0 7-3.141 7-7 0-1.227-.32-2.38-.877-3.384l2.624-2.952-1.495-1.328-2.366 2.661c-1.262-1.233-2.986-1.997-4.886-1.997-3.86 0-7 3.141-7 7s3.14 7 7 7zm0-12c1.391 0 2.649.573 3.557 1.494l-3.599 4.049-2.25-2.25-1.414 1.414 3.75 3.75 4.625-5.203c.204.545.331 1.13.331 1.746 0 2.757-2.243 5-5 5s-5-2.243-5-5 2.243-5 5-5z"/><path d="m48 15c3.86 0 7-3.141 7-7 0-1.227-.32-2.38-.877-3.384l2.624-2.952-1.495-1.328-2.366 2.661c-1.262-1.233-2.986-1.997-4.886-1.997-3.86 0-7 3.141-7 7s3.14 7 7 7zm0-12c1.391 0 2.649.573 3.557 1.494l-3.599 4.049-2.25-2.25-1.414 1.414 3.75 3.75 4.625-5.203c.204.545.331 1.13.331 1.746 0 2.757-2.243 5-5 5s-5-2.243-5-5 2.243-5 5-5z"/><path d="m31 47h-6v2h8v-20h6v-2h-6v-18h6v-2h-8v8h-8v2h8z"/></g></g></svg>