<svg id="Capa_1" enable-background="new 0 0 498.13 498.13" height="512" viewBox="0 0 498.13 498.13" width="512" xmlns="http://www.w3.org/2000/svg"><g><g id="XMLID_222_"><g><path d="m249.065 0c125.53 0 227.3 101.76 227.3 227.29 0 125.54-101.77 227.3-227.3 227.3s-227.3-101.76-227.3-227.3c0-125.53 101.77-227.29 227.3-227.29z" fill="#c8effe"/></g></g><path d="m118.606 227.29c0-108.911 76.649-199.923 178.915-222.114-15.605-3.386-31.837-5.176-48.456-5.176-125.53 0-227.3 101.76-227.3 227.29 0 125.54 101.77 227.3 227.3 227.3 16.619 0 32.815-1.8 48.42-5.186-102.266-22.192-178.879-113.194-178.879-222.114z" fill="#99e6fc"/><g><path d="m317.643 17.414c.127.167.261.329.4.484 19.309 21.42 35.497 51.56 46.817 87.16 11.774 37.028 17.998 79.296 17.998 122.236 0 30.609-3.092 60.516-9.188 88.888-.03.143-.057.288-.079.432-.057.363-5.748 36.792-18.069 75.996-5.202 16.554-10.781 31.097-16.658 43.539 7.128-3.069 14.066-6.495 20.795-10.25 3.531-8.852 6.923-18.45 10.173-28.791 12.289-39.103 18.009-74.545 18.549-77.983 6.289-29.343 9.478-60.238 9.478-91.83 0-83.71-22.362-160.735-60.297-209.423-8.634-3.653-17.542-6.783-26.683-9.36z" fill="#99e6fc"/><path d="m181.005 17.987 10.121-10.525c-9.986 2.625-19.701 5.913-29.1 9.813-38.215 48.654-60.755 125.97-60.755 210.019 0 32.276 3.328 63.807 9.893 93.722l22.497 102.12c5.652 3.338 11.455 6.446 17.407 9.294l-25.254-114.636c-6.332-28.855-9.543-59.304-9.543-90.501 0-42.94 6.224-85.208 17.998-122.236 11.305-35.549 27.465-65.655 46.736-87.07z" fill="#62dbfb"/><g fill="#99e6fc"><path d="m425.666 84.21c-46.785 20.391-109.22 31.613-176.101 31.613-67.233 0-129.979-11.337-176.843-31.933-3.208 3.94-6.293 7.983-9.236 12.136l1.751.939c.163.087.33.169.5.245 48.833 21.676 114.117 33.614 183.828 33.614s134.995-11.938 183.828-33.614c.11-.049.221-.101.329-.156l1.212-.61c-2.952-4.186-6.047-8.263-9.268-12.234z"/><path d="m65.819 357.344-2.448 1.052c2.979 4.211 6.102 8.311 9.352 12.304 46.865-20.595 109.61-31.934 176.842-31.934 66.88 0 129.316 11.223 176.1 31.613 3.256-4.013 6.38-8.136 9.361-12.368l-1.79-.7c-48.815-21.633-114.034-33.544-183.672-33.544-69.71-.001-134.994 11.937-183.745 33.577z"/><path d="m242.065.117v454.355c2.326.07 4.657.117 7 .117 2.679 0 5.343-.063 8-.155v-454.279c-2.657-.092-5.321-.155-8-.155-2.343 0-4.674.047-7 .117z"/><path d="m21.765 227.29c0 2.513.056 5.012.136 7.505h454.327c.081-2.493.136-4.992.136-7.505 0-2.509-.055-5.006-.136-7.495h-454.327c-.081 2.489-.136 4.986-.136 7.495z"/></g><path d="m144.85 333.383c-29.189 5.658-55.963 13.722-79.031 23.962l-2.448 1.052c2.979 4.211 6.102 8.311 9.352 12.304 23.235-10.211 50.377-18.143 80.03-23.549-2.79-4.488-5.423-9.081-7.903-13.769z" fill="#62dbfb"/><path d="m250.145 266.33c-64 0-115.89 51.89-115.89 115.9 0 43.274 23.719 81.003 58.86 100.91v-.01l9.189-3.078 97.413-1.103 7.267 4.302c35.251-19.877 59.06-57.665 59.06-101.02.001-64.011-51.889-115.901-115.899-115.901z" fill="#98bce5"/><path d="m193.115 483.13 21.946-26.825c-16.718-20.086-26.793-45.898-26.793-74.075 0-54.71 37.927-100.562 88.903-112.732-8.667-2.069-17.726-3.168-27.026-3.168-64 0-115.89 51.89-115.89 115.9 0 43.273 23.719 81.002 58.859 100.909z" fill="#7bacdf"/><ellipse cx="250.149" cy="382.232" fill="#5f99d7" rx="85.899" ry="85.899" transform="matrix(.526 -.851 .851 .526 -206.508 394.071)"/><path d="m221.171 463.089c-20.349-20.881-32.903-49.397-32.903-80.859 0-31.458 12.551-59.971 32.896-80.852-33.144 11.918-56.913 43.658-56.913 80.854 0 37.199 23.772 68.94 56.92 80.857z" fill="#3c87d0"/><g><g id="XMLID_224_"><g><path d="m273.175 301.71h-44.05l-13.66-4.49c-1.99-.65-4.03.83-4.03 2.92v37.89l14.074 12.624h54.929l8.427-12.624v-20.63c0-8.67-7.02-15.69-15.69-15.69z" fill="#a79ba7"/><path d="m233.415 301.71h-4.29l-13.66-4.49c-1.99-.65-4.03.83-4.03 2.92v37.89l14.074 12.624h21.98l-14.074-12.624z" fill="#918291"/><path d="m299.235 439.44-32.54-27.03-5.692-4.716-19.67-.244-7.918 4.96-32.55 27.03c-4.91 4.08-7.75 10.13-7.75 16.51v27.18c16.83 9.56 36.3 15 57.03 15 20.65 0 40.05-5.4 56.84-14.88v-27.3c0-6.38-2.84-12.43-7.75-16.51z" fill="#f37c7c"/><path d="m271.763 416.62-5.068-4.21-5.692-4.716-19.669-.244-7.918 4.96-32.55 27.03c-4.91 4.08-7.75 10.13-7.75 16.51v27.18c6.623 3.762 13.66 6.875 21.017 9.28-.141-.079-.285-.153-.425-.233v-27.18c0-6.38 2.84-12.43 7.75-16.51l5.501-4.568c4.258-3.536 9.949-4.932 15.313-3.57 2.492.633 5.1.97 7.784.97 8.438 0 16.378-3.284 22.397-9.285 2.757-2.769 4.928-5.97 6.483-9.457z" fill="#ee6161"/><path d="m233.725 381.84c4.91 2.28 10.38 3.55 16.15 3.55h.55c5.34 0 10.42-1.09 15.04-3.06l1.23.26v27.09c0 .91-.07 1.81-.22 2.69-.57 3.52-2.24 6.66-4.65 9.08-3.02 3.01-7.18 4.87-11.77 4.87-8.27 0-15.13-6.04-16.42-13.95-.15-.87-.22-1.77-.22-2.69v-27.18z" fill="#ffdfcf"/><path d="m266.695 406.447v-23.857l-1.23-.26c-4.62 1.97-9.7 3.06-15.04 3.06h-.55c-1.325 0-2.633-.075-3.923-.206v7.777h-12.537v16.719c0 .92.07 1.82.22 2.69 1.29 7.91 8.15 13.95 16.42 13.95 2.043 0 4.023-.377 5.833-1.051-4.167-2.461-7.203-6.695-8.012-11.658-.001-.009-.003-.018-.004-.027-.362-2.248 1.316-4.316 3.583-4.523 4.468-.41 11.695-1.284 15.24-2.614z" fill="#ffcebf"/><path d="m211.435 338.03v22.2h4.122l17.858 32.732 20.159 4.431 9.918.855 4.412-1.052c12.475-6.351 20.961-19.289 20.961-34.255v-24.91h-77.43z" fill="#ffdfcf"/><path d="m255.705 393.842c-13.16-6.1-22.29-19.43-22.29-34.9v-20.912h-21.98v24.91c0 15.47 9.13 28.8 22.29 34.9 4.91 2.28 10.38 3.55 16.15 3.55h.55c5.34 0 10.42-1.09 15.04-3.06.31-.13.62-.26.92-.4.508-.232 1.043-.492 1.539-.745-4.308-.443-8.452-1.594-12.219-3.343z" fill="#ffcebf"/></g></g></g></g><path d="m152.752 107.439c-29.653-5.406-56.795-13.338-80.03-23.549-3.208 3.94-6.293 7.983-9.236 12.136l1.751.939c.163.087.33.169.5.245 23.11 10.258 49.909 18.332 79.114 23.995 2.478-4.688 5.111-9.281 7.901-13.766z" fill="#62dbfb"/><path d="m118.606 227.29c0-2.509.054-5.006.135-7.495h-96.84c-.081 2.49-.136 4.986-.136 7.495 0 2.513.056 5.012.136 7.505h96.84c-.081-2.493-.135-4.993-.135-7.505z" fill="#62dbfb"/><g><path d="m257.065 18.045v-17.89c-2.657-.092-5.321-.155-8-.155-2.343 0-4.674.047-7 .117v24.963c4.899-2.521 9.902-4.868 15-7.035z" fill="#62dbfb"/></g></g></svg>